<?xml version="1.0" standalone="no"?>
<!DOCTYPE svg PUBLIC "-//W3C//DTD SVG 20010904//EN"
 "http://www.w3.org/TR/2001/REC-SVG-20010904/DTD/svg10.dtd">
<svg version="1.0" xmlns="http://www.w3.org/2000/svg"
 width="1024.000000pt" height="1024.000000pt" viewBox="0 0 1024.000000 1024.000000"
 preserveAspectRatio="xMidYMid meet">
<metadata>
Created by potrace 1.16, written by Peter Selinger 2001-2019
</metadata>
<g transform="translate(0.000000,1024.000000) scale(0.100000,-0.100000)"
fill="#000000" stroke="none">
<path d="M7125 9907 c-459 -43 -839 -162 -1285 -403 -635 -342 -1130 -818
-1377 -1324 -31 -63 -68 -129 -83 -146 -17 -20 -35 -65 -54 -135 -40 -149 -30
-139 -128 -118 -118 26 -425 60 -543 59 -374 0 -652 -94 -826 -277 -216 -226
-168 -545 133 -895 136 -158 343 -294 680 -446 73 -33 115 -80 163 -179 50
-104 22 -169 -98 -228 -139 -69 -265 -41 -306 68 -15 38 -14 67 4 100 22 43
-4 29 -39 -21 -25 -36 -30 -51 -30 -104 1 -131 83 -204 229 -202 118 2 243 60
336 156 40 42 40 42 33 12 -12 -51 -35 -87 -106 -164 -159 -171 -213 -299
-212 -500 0 -105 6 -126 62 -232 2 -3 -5 -8 -15 -10 -12 -3 -46 22 -100 74
-46 43 -87 78 -93 78 -5 0 -10 19 -10 43 0 110 -63 251 -150 337 -143 141
-325 190 -469 128 -55 -23 -55 -23 -101 90 -18 41 -112 244 -209 451 -98 207
-253 536 -344 731 -276 586 -337 701 -337 631 0 -12 4 -21 9 -21 6 0 9 -8 8
-18 0 -10 7 -35 17 -56 12 -25 16 -49 12 -70 -10 -48 -10 -48 -2 -101 l8 -50
-21 24 c-11 13 -23 33 -26 45 -13 48 -59 135 -68 129 -6 -3 -7 -1 -3 5 3 6 -4
30 -16 53 -22 43 -22 43 -29 16 -4 -15 -1 -53 6 -84 23 -97 297 -884 475
-1363 55 -148 146 -398 185 -510 18 -52 40 -112 49 -132 l16 -37 -33 -22
c-123 -85 -172 -185 -161 -329 8 -91 46 -227 80 -286 14 -24 23 -44 20 -44 -8
0 25 -102 50 -151 12 -26 41 -64 64 -85 22 -21 40 -46 40 -55 0 -20 49 -90
101 -144 l38 -40 10 -225 c8 -176 16 -252 36 -350 70 -332 202 -606 377 -780
133 -132 277 -190 474 -190 107 0 250 23 361 58 l62 20 -13 -32 c-8 -17 -28
-62 -46 -101 -29 -61 -131 -296 -275 -630 -24 -55 -89 -208 -145 -340 -116
-275 -118 -241 15 -305 99 -47 211 -84 425 -140 91 -24 167 -45 170 -48 11 -9
-85 -82 -158 -120 -167 -87 -319 -139 -591 -202 -94 -21 -183 -46 -198 -54
l-27 -14 39 -17 c111 -46 127 -47 940 -52 924 -5 1136 4 1199 50 16 12 17 16
5 36 -23 36 -114 56 -276 60 -34 1 -46 57 -36 161 l8 85 115 -2 c63 -1 196 -4
295 -7 384 -13 944 -3 1087 20 45 7 45 8 51 -107 3 -56 0 -97 -8 -116 -12 -28
-17 -30 -82 -36 -83 -8 -166 -32 -183 -52 -32 -39 56 -72 230 -86 171 -14
1487 -6 1555 10 65 15 135 42 135 51 0 5 -71 31 -157 60 -255 83 -448 189
-588 322 l-69 65 50 11 c27 6 103 23 169 38 151 32 406 104 510 144 102 39
315 142 315 153 0 26 -118 232 -224 390 -66 100 -123 186 -125 191 -2 4 11 5
29 1 18 -4 79 -7 135 -7 326 2 548 162 620 447 17 69 35 217 35 291 0 51 0 51
34 57 60 10 104 37 136 85 16 25 30 49 30 53 0 4 -19 14 -42 24 -42 16 -43 16
-57 -4 -25 -39 -89 -23 -116 28 -15 31 -79 301 -72 308 3 2 16 -15 30 -39 82
-139 238 -218 404 -205 247 19 364 226 215 380 -20 20 -44 37 -54 37 -17 0
-17 -2 -3 -30 24 -47 20 -116 -10 -145 -31 -32 -91 -34 -129 -4 -51 40 -25
148 70 281 48 68 119 201 149 283 119 315 39 711 -186 920 -141 132 -286 196
-537 235 -161 25 -282 54 -330 79 l-37 20 41 1 c59 0 178 44 251 91 168 110
266 281 243 424 -17 104 -75 164 -204 211 l-65 23 9 -25 c26 -67 4 -152 -50
-197 -95 -80 -236 -83 -397 -8 -99 47 -237 157 -288 231 l-29 41 29 23 c24 19
27 27 21 52 -4 16 -20 46 -37 66 -16 20 -29 39 -29 41 0 2 35 7 77 11 164 13
451 78 632 141 197 69 340 154 457 272 118 119 194 254 208 372 l7 54 -73 -6
c-40 -3 -122 -13 -183 -21 -177 -24 -765 -73 -755 -63 3 3 40 14 83 26 101 27
198 77 269 137 32 26 56 49 54 51 -2 2 -48 -6 -102 -18 -187 -41 -532 -37
-804 10 -126 22 -408 87 -427 99 -10 6 -10 30 -2 106 14 123 1 262 -40 431
-16 66 -41 203 -56 305 -15 102 -31 195 -36 208 -15 39 -10 73 27 202 36 127
45 166 47 231 2 34 11 45 139 151 157 132 232 176 321 188 159 23 300 -32 438
-169 111 -111 167 -219 204 -391 13 -63 34 -160 46 -215 69 -325 293 -543 538
-522 152 13 241 93 241 217 0 46 -39 127 -79 164 -36 34 -36 33 -15 -25 17
-50 12 -118 -14 -162 -18 -29 -84 -67 -120 -67 -90 0 -170 101 -207 260 -27
122 -29 262 -6 496 22 230 19 289 -20 419 -96 320 -468 661 -864 790 -213 70
-536 105 -770 82z m316 -118 c146 -11 323 -46 423 -84 175 -66 364 -176 471
-274 47 -44 162 -167 123 -132 -25 22 -26 22 -21 3 8 -34 -18 -38 -41 -6 -66
92 -216 219 -348 295 -56 31 -207 99 -222 99 -3 0 3 -23 13 -51 14 -37 16 -51
8 -55 -7 -2 -67 9 -133 25 -66 17 -140 33 -165 37 -24 3 -87 17 -139 30 -52
12 -113 26 -135 29 l-40 7 48 -31 c26 -17 47 -34 47 -38 0 -8 -23 -24 -121
-86 -32 -20 -65 -42 -75 -50 -91 -74 -153 -125 -174 -144 -14 -13 -27 -23 -31
-23 -3 0 -53 25 -110 55 -57 30 -108 55 -114 55 -5 0 10 -19 32 -42 23 -24 49
-59 56 -78 16 -39 14 -104 -4 -126 -6 -8 -8 -14 -4 -14 5 0 6 -3 3 -6 -4 -3
-30 11 -59 31 -92 63 -336 164 -369 153 -6 -2 14 -21 46 -43 133 -91 254 -219
288 -306 29 -71 8 -151 -67 -256 -32 -45 -74 -68 -109 -60 -13 3 -75 24 -138
47 -63 23 -149 52 -190 65 l-75 24 160 -155 160 -155 -80 5 c-44 3 -159 18
-255 35 -96 16 -210 32 -253 36 -43 3 -85 9 -95 12 -32 11 1 -14 58 -45 30
-16 78 -43 105 -59 28 -16 72 -42 99 -57 42 -25 46 -30 33 -43 -13 -13 -21
-11 -68 13 -58 30 -121 55 -126 50 -2 -2 16 -19 39 -38 41 -34 308 -296 308
-302 0 -2 -15 -2 -32 0 -18 2 -47 5 -63 7 -17 2 -35 6 -40 8 -6 3 -30 7 -55 8
-25 2 -49 6 -55 11 -5 4 -31 8 -56 9 -39 1 -52 7 -88 41 -23 22 -45 39 -49 37
-9 -5 -193 25 -322 52 -224 48 -504 12 -690 -87 -76 -40 -163 -76 -158 -65 42
95 176 300 275 423 146 182 378 395 581 535 603 415 1113 621 1667 674 130 12
176 12 326 0z m-281 -1155 c0 -53 -36 -209 -65 -277 l-15 -37 -41 27 -40 26
25 24 c49 45 85 148 102 288 7 60 7 60 20 30 7 -16 13 -53 14 -81z m-125 -352
c89 -47 90 -48 97 -92 14 -97 21 -330 10 -330 -6 0 -14 17 -18 38 -52 296 -70
345 -145 396 -74 50 -51 45 56 -12z m-1550 -52 c106 -10 245 -29 245 -34 0 -2
-7 -16 -15 -33 -12 -24 -68 -225 -99 -356 -6 -25 -10 -27 -39 -22 -86 15 -334
35 -430 35 -106 0 -107 0 -102 23 2 12 18 81 35 152 61 258 50 245 193 245 56
0 152 -5 212 -10z m-455 -78 c0 -5 -13 -15 -30 -22 -16 -7 -28 -16 -25 -19 2
-4 -2 -8 -10 -8 -8 0 -12 3 -10 7 2 3 -10 4 -26 2 -19 -3 -28 -9 -26 -17 4 -8
-3 -10 -19 -7 -29 5 -142 -17 -150 -30 -3 -4 -10 -5 -16 -2 -7 4 -8 2 -4 -4 4
-7 5 -12 2 -12 -2 0 -13 -3 -23 -6 -15 -5 -15 -4 -3 5 18 13 1 15 -19 2 -11
-7 -10 -11 5 -21 18 -11 18 -11 -1 -5 -11 4 -25 9 -31 12 -6 2 -36 -19 -65
-47 -30 -28 -47 -48 -39 -44 8 4 -4 -11 -27 -34 -23 -22 -49 -55 -58 -72 -26
-50 -28 -29 -6 64 28 117 43 143 95 166 132 56 486 123 486 92z m2122 -373
c50 -11 58 -23 78 -109 12 -55 12 -334 0 -304 -4 11 -13 75 -19 143 -16 179
-29 201 -152 266 -38 20 -69 38 -69 40 0 2 26 -3 58 -11 31 -8 78 -19 104 -25z
m-2907 -98 c143 -18 357 -50 476 -72 118 -21 222 -39 230 -39 8 0 -15 12 -51
27 -36 14 -84 37 -106 49 -23 13 -44 20 -48 17 -3 -4 -6 1 -6 10 0 9 -5 17
-11 17 -5 0 -8 4 -5 8 3 5 54 12 114 15 179 10 396 -22 607 -90 115 -36 358
-133 374 -148 53 -51 -169 -104 -383 -92 -56 3 -220 28 -366 55 -146 28 -290
53 -320 57 -140 17 -415 70 -573 110 -96 25 -179 45 -183 44 -16 -1 308 -109
416 -139 58 -16 185 -48 283 -70 228 -52 387 -98 511 -149 74 -29 91 -40 68
-39 -18 1 -32 5 -32 10 0 4 -19 6 -42 5 -24 -2 -68 2 -98 10 -30 7 -68 16 -85
19 -16 3 -86 19 -155 36 -78 19 -159 31 -215 33 -107 4 -280 37 -578 111 -479
120 -701 147 -874 109 -122 -28 -194 -67 -297 -164 -51 -48 -57 -52 -43 -25
26 51 117 144 181 185 82 54 200 97 324 118 89 16 150 19 367 17 224 -2 296
-7 520 -35z m240 -401 c4 -6 11 -8 16 -5 5 3 6 -1 3 -9 -3 -9 -11 -16 -18 -16
-6 -1 3 -8 19 -16 30 -14 23 -14 -24 1 -16 5 -21 4 -17 -4 10 -15 1 -14 -33 3
-23 12 -28 12 -28 1 0 -7 6 -11 14 -8 7 3 13 0 13 -6 0 -6 -6 -11 -13 -11 -17
0 -60 -47 -81 -88 -23 -44 -22 -129 0 -181 l19 -43 -50 -51 c-136 -140 -229
-323 -259 -512 -5 -35 -3 -32 17 21 26 67 106 210 145 255 13 16 33 34 45 40
20 11 20 10 14 -57 -3 -38 -15 -95 -26 -128 -20 -58 -20 -83 1 -70 7 4 8 2 4
-5 -6 -9 -11 -9 -22 0 -14 11 -19 2 -15 -24 3 -16 -155 -204 -234 -279 -27
-26 -46 -48 -41 -48 19 0 92 24 106 35 21 17 105 54 164 72 65 20 80 13 71
-34 -4 -25 -2 -38 7 -44 18 -12 30 -11 23 1 -3 6 -1 10 5 10 6 0 8 5 5 10 -3
6 -2 10 3 10 9 0 42 -64 42 -82 0 -22 -119 0 -175 32 -48 28 -54 29 -66 13 -9
-10 -14 -42 -14 -87 0 -95 34 -162 127 -257 l70 -71 -30 -41 c-78 -110 -212
-152 -258 -82 -15 23 -15 27 1 51 13 21 19 24 26 13 5 -8 9 -9 9 -3 0 5 -5 15
-10 20 -8 8 -6 15 6 25 16 13 17 12 11 -6 -7 -19 -7 -19 7 -1 14 18 15 18 13
-3 -1 -11 -6 -21 -11 -21 -5 0 -7 -3 -4 -6 14 -13 48 18 53 50 14 70 -30 246
-57 230 -4 -3 -8 0 -8 7 0 17 -40 59 -56 59 -7 0 -20 10 -28 22 -9 12 -16 19
-16 15 0 -4 -9 1 -20 10 -14 13 -17 20 -8 30 8 10 7 12 -5 8 -20 -8 -32 12
-16 31 10 12 9 13 -3 9 -16 -6 -39 48 -41 98 -1 15 -6 27 -10 27 -5 0 -6 14
-2 31 5 24 4 30 -5 24 -8 -5 -11 -3 -8 6 3 8 -4 33 -14 57 -11 23 -17 46 -13
51 3 5 1 11 -4 13 -12 4 -31 140 -31 218 0 86 21 220 31 195 5 -13 8 -15 8 -5
1 8 4 26 8 38 12 47 -90 -70 -112 -127 -24 -64 -35 -73 -36 -29 0 18 -2 41 -4
50 -5 28 16 98 28 91 6 -3 7 -1 3 5 -8 14 29 88 62 125 19 20 28 24 35 15 5
-9 6 -6 3 8 -7 24 26 60 45 48 7 -4 10 -3 6 3 -8 12 42 59 108 102 120 78 324
157 358 140 10 -6 23 -8 30 -5 7 2 5 5 -5 5 -20 1 -33 17 -15 19 7 0 31 3 53
6 25 3 52 -1 69 -10 15 -8 29 -14 31 -14 8 0 -1 25 -11 32 -6 5 -6 8 2 8 6 0
15 -5 18 -10z m305 -33 c24 -23 35 -42 36 -64 1 -37 59 -135 109 -183 l36 -35
-26 58 c-15 32 -24 64 -22 72 17 42 122 -51 168 -148 49 -104 37 -142 -41
-127 -70 13 -303 108 -320 130 -11 14 -19 17 -30 10 -13 -9 -13 -12 3 -24 15
-12 16 -14 2 -20 -8 -3 -22 -3 -30 1 -9 3 -24 -2 -34 -11 -27 -24 -104 -13
-161 22 -33 20 -50 40 -64 75 -19 45 -19 49 -3 82 19 40 54 60 89 52 27 -7
154 -130 163 -158 6 -19 25 -27 25 -10 0 12 27 8 42 -7 15 -15 31 -16 22 0 -5
8 -2 9 11 4 15 -5 16 -4 5 9 -7 9 -19 14 -27 11 -7 -3 -13 1 -13 8 0 8 -7 16
-14 19 -10 4 -14 1 -10 -11 2 -9 -2 -3 -10 14 -8 17 -26 39 -41 48 -14 9 -23
21 -20 25 2 5 -2 14 -10 21 -20 17 -19 84 1 116 40 61 111 70 164 21z m1196
11 c16 -12 32 -26 35 -31 9 -13 1 -94 -12 -118 -9 -17 -8 -20 3 -13 11 6 11 5
-1 -9 -7 -9 -10 -17 -6 -17 4 0 1 -8 -6 -17 -8 -9 -9 -14 -2 -10 6 4 13 2 15
-5 3 -8 11 -5 24 8 74 74 129 93 140 49 7 -28 -36 -95 -62 -95 -7 0 -14 -5
-14 -12 0 -6 -3 -9 -6 -5 -3 3 -22 -2 -40 -13 -40 -21 -154 -21 -179 0 -9 7
-19 10 -22 6 -4 -4 -2 -10 5 -15 6 -4 -4 -7 -24 -7 -19 0 -39 -6 -43 -13 -5
-7 -11 -12 -15 -12 -17 2 -66 -12 -66 -19 0 -4 -26 -18 -57 -31 -32 -12 -67
-28 -78 -35 -16 -10 -118 -44 -132 -44 -2 0 -3 6 -3 14 0 8 -4 18 -10 21 -6 4
-7 -1 -4 -12 3 -10 -3 -4 -15 12 -51 73 2 245 76 245 31 0 30 -28 -2 -100
l-25 -55 63 70 c99 112 164 172 198 184 l31 11 -4 -54 c-3 -38 -13 -68 -33
-98 l-29 -43 36 30 c50 43 95 112 109 168 20 82 93 113 155 65z m-843 -102
c10 3 24 1 31 -5 8 -7 40 -14 71 -16 36 -3 65 -11 78 -22 12 -11 17 -12 12 -4
-6 11 -4 13 9 8 10 -4 22 -7 28 -7 5 0 2 -7 -7 -16 -32 -32 -48 -79 -53 -160
-4 -76 -2 -88 22 -138 21 -43 36 -59 70 -75 23 -12 47 -21 54 -21 16 0 34 -35
53 -100 l16 -55 7 50 c3 28 9 66 12 86 3 22 16 47 31 60 15 13 23 17 18 9 -6
-12 -5 -13 6 -2 7 6 21 12 32 12 15 0 17 -4 11 -22 -5 -13 -7 -57 -6 -99 2
-108 31 -179 99 -247 l53 -54 63 5 c102 7 135 16 208 53 38 19 75 32 82 28 7
-4 9 -4 5 1 -4 4 -2 15 5 23 10 13 9 14 -8 5 -11 -6 -39 -14 -62 -18 -22 -3
-49 -15 -59 -26 -9 -10 -24 -19 -33 -19 -10 0 -12 3 -5 8 30 19 58 99 62 178
5 98 -13 163 -64 230 l-34 44 26 0 c21 0 25 -4 20 -17 -6 -17 -5 -17 7 -1 15
19 67 42 75 33 3 -3 -1 -5 -9 -5 -12 0 -11 -2 1 -11 13 -9 12 -10 -2 -5 -26 8
-48 -3 -48 -25 0 -14 7 -19 25 -19 31 0 33 20 3 21 -18 1 -19 2 -5 6 10 3 23
0 30 -5 8 -7 20 -6 37 3 14 8 35 14 47 15 15 0 23 7 25 23 2 12 12 -43 23
-123 10 -80 18 -149 16 -154 -1 -6 2 -19 8 -30 19 -42 30 -87 24 -103 -4 -10
-2 -14 4 -10 13 8 26 -20 17 -35 -4 -6 -1 -14 6 -18 7 -4 -16 -7 -49 -7 -36 0
-56 4 -49 9 9 5 10 8 1 8 -6 0 -14 -4 -17 -9 -4 -5 -24 -12 -46 -16 -61 -10
-60 -26 2 -19 90 10 185 -34 298 -135 44 -40 45 -41 16 -38 -16 2 -34 10 -40
18 -17 23 -78 66 -105 74 -21 6 -18 0 22 -46 53 -61 58 -85 22 -123 -21 -23
-27 -25 -50 -14 -14 6 -25 16 -25 23 0 6 -7 20 -15 31 -14 18 -14 17 -5 -10 6
-16 9 -30 7 -32 -2 -2 -39 21 -83 52 -122 85 -222 123 -324 124 -51 0 -184
-34 -217 -56 -27 -17 -33 -18 -33 -2 0 18 -31 48 -49 47 -10 0 -12 -2 -3 -6
21 -8 14 -57 -10 -68 -13 -6 -32 -24 -43 -42 -11 -18 -26 -30 -33 -28 -7 3
-11 1 -7 -4 3 -5 -22 -37 -56 -70 -48 -48 -66 -60 -83 -56 -15 5 -17 4 -8 -3
18 -13 -37 -32 -90 -32 -52 0 -124 36 -109 54 8 10 7 17 -4 26 -8 7 -13 16
-10 20 7 11 -22 6 -32 -5 -4 -4 -3 -5 4 -1 6 3 14 2 18 -4 3 -5 1 -10 -5 -10
-6 0 -8 -5 -4 -11 5 -8 9 -8 14 1 5 8 10 8 14 2 3 -5 -1 -12 -9 -16 -17 -6
-50 37 -40 54 4 6 1 9 -6 8 -19 -5 -32 59 -19 96 23 71 141 176 233 207 l49
16 -46 7 c-25 4 -46 12 -46 18 0 6 -11 8 -24 6 l-23 -5 -7 144 c-6 137 -6 145
15 174 43 60 34 165 -22 267 -16 29 -27 58 -23 64 4 6 3 8 -3 5 -5 -3 -19 7
-31 22 -19 26 -19 31 -6 47 12 17 13 17 8 1 -5 -13 -2 -16 9 -11 9 3 14 13 10
22 -3 13 -2 14 4 4 5 -7 17 -10 26 -6z m1173 -339 c9 3 14 -2 15 -18 1 -20 2
-19 8 6 4 17 2 33 -4 38 -5 4 4 5 20 1 48 -10 117 -91 155 -183 31 -75 73
-156 66 -126 -3 11 -15 55 -27 99 -24 89 -16 114 23 80 23 -19 23 -19 7 1 -8
11 -21 33 -27 48 -11 27 -11 28 9 22 12 -4 29 -8 38 -10 9 -1 15 -10 15 -19
-1 -8 2 -14 6 -11 4 3 11 -2 14 -11 10 -25 7 -36 -6 -29 -7 4 -5 0 5 -8 10 -8
44 -95 78 -198 33 -100 67 -196 75 -212 13 -24 13 -31 2 -44 -10 -13 -10 -17
0 -20 6 -3 10 -9 6 -14 -3 -5 0 -9 6 -9 6 0 8 -4 5 -10 -8 -13 -75 -13 -75 1
0 5 -8 9 -17 8 -25 -4 -63 10 -63 23 0 5 -7 8 -15 4 -8 -3 -15 -1 -15 5 0 6
-4 8 -9 5 -4 -3 -21 6 -37 20 -30 27 -13 23 19 -4 33 -28 17 -1 -23 39 -25 25
-45 38 -52 33 -7 -4 -10 -4 -6 0 3 4 -8 22 -25 39 -18 18 -45 48 -60 67 l-28
35 27 -55 c15 -30 36 -63 47 -73 11 -9 18 -20 15 -22 -8 -8 -79 76 -106 125
-13 24 -19 39 -13 36 6 -4 11 -3 11 2 0 6 -7 12 -15 16 -9 3 -12 12 -8 22 5
12 3 15 -6 9 -11 -6 -11 -3 0 16 11 22 11 23 -5 10 -14 -12 -16 -12 -10 4 5
13 4 16 -4 11 -8 -5 -10 3 -6 26 4 26 3 30 -5 18 -9 -12 -10 -9 -5 14 5 22 4
27 -6 21 -10 -6 -12 5 -7 56 4 40 3 55 -3 39 -6 -18 -8 -6 -8 45 1 39 3 60 5
48 3 -14 9 -20 19 -16z m-1707 -26 c7 -5 10 -14 7 -20 -4 -6 0 -11 11 -11 12
0 14 -3 6 -8 -9 -5 -6 -11 9 -21 19 -12 20 -11 17 6 -3 10 6 29 20 43 13 14
20 19 16 11 -6 -11 -4 -13 8 -8 10 3 17 2 17 -3 0 -5 8 -6 17 -3 13 5 15 3 9
-13 -15 -39 -18 -145 -6 -206 22 -114 76 -191 159 -225 71 -30 155 11 201 100
l22 42 -6 -40 c-5 -32 -18 -51 -65 -95 -32 -30 -70 -74 -86 -98 -15 -23 -33
-41 -39 -38 -143 62 -281 39 -401 -66 -25 -22 -46 -35 -45 -27 1 8 1 28 0 44
-2 28 -3 27 -11 -11 -6 -24 -15 -41 -23 -41 -11 0 -12 6 -6 23 6 14 5 26 0 29
-5 3 -11 -5 -13 -17 -3 -17 -5 -14 -6 10 -2 54 36 119 96 164 63 48 87 51 190
27 43 -9 79 -16 81 -15 1 2 -16 15 -39 30 -23 15 -38 23 -34 16 5 -8 2 -9 -11
-2 -11 6 -41 19 -69 30 l-50 21 -7 93 c-4 51 -13 125 -21 163 -8 39 -11 71 -6
73 5 2 6 8 3 13 -17 29 23 50 55 30z m2413 -80 c93 -22 135 -46 118 -67 -7 -7
-10 -20 -7 -27 6 -15 -60 -16 -71 -1 -8 11 -162 12 -155 2 2 -5 -6 -8 -19 -8
-13 0 -40 -11 -60 -25 -42 -28 -49 -24 -69 43 -15 51 -7 63 56 86 55 20 116
19 207 -3z m173 -152 c-19 -94 -40 -142 -98 -218 -39 -50 -128 -121 -153 -121
-13 0 -36 48 -29 61 4 5 1 9 -5 9 -6 0 -8 5 -5 10 3 6 2 10 -4 10 -16 0 -31
35 -24 58 4 17 9 20 23 12 27 -15 33 3 16 45 -14 33 -14 37 4 55 11 11 16 20
11 20 -5 0 -14 -7 -21 -15 -10 -13 -15 -13 -21 -3 -10 16 6 35 52 59 41 21 79
25 79 9 0 -5 7 -10 15 -10 8 0 15 -7 15 -16 0 -8 5 -12 10 -9 13 8 5 -29 -22
-103 -35 -95 -13 -65 57 78 64 128 75 145 98 141 4 0 7 4 7 11 0 6 3 9 6 5 3
-3 -1 -43 -11 -88z m449 -197 c44 -72 107 -168 138 -213 l58 -81 -38 23 c-48
29 -125 103 -160 154 -15 22 -31 43 -35 46 -5 3 -7 9 -5 13 1 3 -10 20 -27 38
-16 18 -24 28 -16 24 9 -6 12 -5 9 5 -3 8 -11 14 -18 14 -15 0 -29 34 -22 54
4 10 1 12 -7 6 -10 -6 -11 -3 -2 13 7 13 17 19 26 16 18 -7 19 -21 3 -27 -10
-4 -10 -8 1 -15 13 -9 13 -13 0 -29 -13 -16 -12 -17 3 -5 9 7 18 9 20 5 6 -10
2 5 -7 32 -7 20 -6 20 9 1 27 -33 18 -5 -11 32 -14 19 -20 33 -13 30 7 -2 49
-63 94 -136z m-228 -67 c33 -63 56 -95 70 -95 9 0 12 -4 9 -10 -3 -5 -1 -10 5
-10 6 0 9 -4 6 -9 -7 -11 18 -33 28 -24 3 4 13 8 21 9 11 2 12 -2 2 -16 -6
-10 -16 -16 -22 -13 -5 3 -2 -2 7 -12 13 -14 20 -16 31 -7 11 10 17 9 27 -3
14 -16 34 -10 24 7 -4 7 -2 8 5 4 6 -4 9 -10 7 -14 -5 -9 22 -47 29 -41 11 12
-23 86 -53 117 -19 18 -32 35 -29 38 2 2 31 -26 63 -63 32 -38 61 -70 65 -73
3 -3 39 -54 80 -115 122 -182 278 -330 414 -395 81 -38 204 -63 281 -56 96 9
201 52 263 110 l35 31 -18 -30 -17 -30 20 24 c12 13 21 30 21 38 0 8 5 11 10
8 6 -3 10 -1 10 4 0 22 20 10 21 -11 0 -22 1 -22 10 -3 7 14 8 7 4 -28 -6 -56
-41 -131 -57 -121 -7 4 -8 3 -4 -5 9 -14 -68 -97 -126 -137 -42 -30 -165 -77
-178 -69 -5 3 -11 1 -15 -4 -5 -10 -57 -14 -171 -13 -54 1 -129 20 -216 57
-10 4 -18 3 -17 -1 1 -13 156 -148 180 -156 10 -4 19 -10 19 -13 0 -4 -5 -3
-12 1 -7 4 -8 3 -4 -5 4 -6 11 -9 16 -6 12 7 81 -41 72 -50 -4 -4 0 -5 8 -3
21 7 57 -12 41 -22 -9 -5 -8 -9 4 -13 9 -4 13 -3 10 3 -7 11 6 13 29 4 9 -3
13 -11 10 -16 -4 -6 -1 -9 7 -6 7 2 54 -15 104 -38 49 -23 137 -54 195 -69
214 -53 343 -107 450 -190 153 -118 229 -257 250 -461 6 -55 8 -117 4 -139
l-7 -40 -13 53 c-19 74 -81 205 -94 197 -5 -3 -7 0 -5 8 3 7 -10 34 -30 60
-34 45 -55 59 -55 37 0 -5 4 -10 9 -10 11 0 64 -105 69 -135 2 -11 5 -76 7
-144 3 -90 1 -121 -7 -113 -6 6 -16 9 -22 6 -6 -2 -23 20 -39 48 -42 80 -139
210 -163 219 l-22 8 19 -62 c29 -94 33 -162 15 -252 -21 -107 -31 -140 -42
-140 -10 0 -12 20 -15 125 -1 47 -4 58 -9 40 -5 -16 -8 -19 -9 -7 -1 20 -12
22 -29 5 -9 -9 -12 -9 -12 0 0 6 11 17 24 24 18 10 22 18 15 33 -7 19 -8 19
-8 -1 -1 -26 -31 -42 -31 -16 0 14 -2 14 -9 3 -5 -8 -7 -20 -4 -28 3 -7 0 -13
-5 -13 -6 0 -12 -8 -14 -17 -2 -12 -10 -3 -25 27 -28 60 -111 162 -125 154 -6
-4 -8 -3 -5 3 4 6 -15 28 -41 49 -53 45 -197 144 -207 144 -4 0 -15 10 -25 22
l-17 22 -12 -21 c-8 -16 -8 -24 1 -29 7 -4 8 -3 4 4 -9 15 -5 15 31 0 28 -12
24 -13 -51 -15 -44 -1 -83 2 -86 6 -3 5 -24 18 -48 30 -27 14 -40 26 -36 34 5
9 3 9 -7 0 -10 -10 -10 -16 -1 -25 7 -7 12 -16 12 -21 0 -4 -25 18 -56 50
-185 189 -294 357 -422 645 -21 49 -42 85 -47 80 -4 -4 -5 -2 -2 5 4 6 4 19 0
29 -6 16 -7 16 -18 0 -11 -14 -14 -13 -25 14 -10 23 -10 33 0 45 9 11 8 19 -9
36 -12 13 -21 18 -21 13 0 -6 5 -15 12 -22 6 -6 9 -15 5 -18 -10 -11 -37 17
-37 38 0 18 -1 19 -17 2 -13 -13 -14 -19 -5 -22 16 -5 15 -19 -2 -25 -10 -4
-13 -1 -9 9 3 9 0 14 -8 12 -7 -2 -19 11 -27 27 -8 17 -19 33 -24 36 -5 3 -7
12 -5 20 2 8 2 11 0 7 -8 -14 -25 -8 -20 6 4 11 1 13 -10 9 -12 -5 -14 -3 -8
8 7 11 6 12 -6 2 -12 -10 -20 -7 -43 18 -24 25 -26 32 -15 46 13 15 12 15 -8
2 -21 -13 -26 -10 -74 39 -27 28 -54 52 -58 52 -5 0 -15 10 -23 22 -14 21 -12
25 34 71 57 57 76 91 84 151 4 25 13 47 20 50 8 3 14 13 14 21 0 9 5 13 10 10
6 -3 10 -4 10 -1 0 17 -22 13 -29 -6 -8 -18 -10 -19 -10 -5 -1 11 -6 15 -12
11 -8 -5 -10 3 -6 27 3 19 1 43 -4 54 -8 17 -9 16 -4 -7 4 -23 2 -25 -16 -21
-16 4 -18 8 -7 14 8 6 1 8 -21 6 -19 -1 -36 -8 -38 -14 -2 -6 4 -10 14 -9 10
2 12 1 5 -1 -7 -3 -10 -8 -7 -13 3 -4 -4 -10 -15 -13 -11 -3 -20 -1 -20 4 0 5
4 9 9 9 4 0 7 11 6 24 -2 19 1 23 23 22 19 -1 28 5 30 18 3 15 0 18 -21 12
-23 -5 -26 -2 -37 42 -7 26 -13 57 -13 69 -1 11 -5 19 -9 16 -7 -4 -12 21 -11
55 1 6 -2 12 -6 12 -4 0 -8 11 -9 25 -1 14 -9 38 -18 53 -9 15 -10 20 -3 11 8
-9 24 -21 36 -27 12 -7 24 -24 26 -40 2 -15 4 -9 3 14 -1 29 3 40 12 37 10 -5
16 8 13 29 -2 18 32 -2 45 -27z m-116 -121 c20 -40 16 -135 -7 -174 -10 -18
-35 -41 -55 -51 -37 -19 -38 -19 -57 0 -30 30 -71 201 -57 237 6 16 18 8 77
-56 l70 -75 -7 79 c-5 64 -4 78 7 74 8 -2 21 -18 29 -34z m-1344 -16 c29 -10
81 -40 116 -67 111 -84 161 -105 249 -104 44 1 91 8 114 17 48 20 46 21 35
-10 -15 -38 -50 -85 -60 -79 -4 3 -7 -3 -6 -13 0 -9 -5 -16 -12 -14 -8 1 -11
-2 -8 -7 8 -12 -21 -34 -34 -26 -6 4 -9 1 -8 -7 2 -7 -3 -12 -10 -10 -8 1 -11
-1 -8 -6 8 -14 -27 -37 -55 -37 -14 1 -26 -5 -26 -12 0 -8 5 -9 19 -2 10 5 18
7 18 4 0 -12 -116 -57 -183 -72 -147 -31 -357 10 -501 99 -51 31 -50 20 4 -30
38 -35 171 -122 187 -122 8 0 11 -5 7 -12 -4 -6 -3 -8 4 -5 5 4 21 3 34 -2 12
-6 17 -10 10 -10 -7 -1 -10 -5 -7 -11 7 -11 -52 -6 -130 11 -58 13 -146 54
-175 81 -11 10 -20 14 -20 9 0 -21 51 -68 104 -94 31 -16 56 -30 56 -33 0 -9
-108 9 -165 28 -65 21 -148 72 -186 116 -72 81 -93 130 -56 130 12 0 40 2 62
5 l40 5 -30 -14 c-26 -11 -27 -13 -8 -14 54 -1 153 87 153 136 0 7 4 16 10 19
6 4 7 -1 4 -12 -5 -14 -4 -15 4 -4 7 10 7 21 1 33 -9 16 -6 23 5 16 7 -5 46
35 41 42 -3 4 2 11 11 14 10 4 13 2 8 -7 -7 -11 24 9 36 24 14 18 101 52 159
64 75 15 123 11 197 -17z m-1088 -28 c2 -5 8 -8 13 -5 15 10 51 -15 45 -31 -3
-8 -2 -14 3 -14 5 0 16 -20 26 -45 9 -25 28 -53 41 -62 13 -8 21 -19 18 -24
-3 -5 -2 -8 3 -7 12 4 65 -39 56 -44 -5 -3 -2 -3 5 -1 26 6 70 -27 82 -61 6
-18 25 -55 42 -80 28 -44 29 -48 14 -65 -19 -21 -104 -69 -132 -74 -10 -2 -26
-7 -34 -10 -8 -3 -34 -7 -57 -9 l-43 -3 28 21 c15 12 31 20 37 16 5 -3 7 -2 3
3 -4 4 6 23 22 42 52 59 35 66 -34 14 -42 -32 -88 -56 -133 -70 -100 -31 -135
-13 -55 28 65 33 146 121 128 139 -3 3 -6 0 -6 -6 0 -16 -99 -60 -177 -78
-130 -31 -405 7 -342 47 10 6 6 9 -13 9 -15 0 -30 5 -33 10 -4 6 -23 19 -43
29 -44 23 -142 114 -142 131 0 8 9 10 28 5 138 -38 211 -17 332 96 81 74 111
96 150 108 42 12 163 6 168 -9z m1880 -25 c21 -3 47 -7 59 -8 13 -2 33 -20 49
-43 65 -98 159 -171 256 -199 69 -20 184 -13 238 15 l36 17 -4 -33 c-3 -27
-62 -113 -62 -91 0 4 -9 -2 -20 -13 -11 -11 -27 -20 -35 -20 -8 0 -15 -4 -15
-10 0 -5 -8 -9 -17 -8 -40 3 -74 -3 -68 -12 3 -5 -26 -8 -77 -6 -63 3 -93 9
-123 26 -53 29 -66 40 -59 51 3 5 -3 6 -12 2 -14 -5 -16 -3 -11 12 6 14 5 16
-6 7 -10 -9 -21 -4 -45 21 -18 19 -34 44 -37 57 -2 12 -7 25 -11 29 -4 3 -4
-3 -1 -14 10 -28 -46 39 -69 84 -10 20 -29 50 -41 67 -13 17 -23 34 -23 37 0
15 36 45 48 41 8 -2 30 -6 50 -9z m-132 -57 c4 -7 3 -8 -4 -4 -17 10 -15 -7 4
-30 14 -17 15 -17 10 -1 -3 11 -2 16 4 12 6 -4 10 -12 9 -18 -3 -19 12 -47 22
-41 5 3 6 -1 3 -9 -3 -8 3 -21 13 -29 19 -14 36 -38 56 -78 6 -14 37 -61 67
-105 30 -43 54 -83 52 -88 -1 -5 2 -6 7 -3 8 5 23 -16 25 -36 1 -9 16 -23 27
-24 5 -1 14 -2 19 -3 6 0 10 -5 10 -11 0 -12 -37 -13 -44 -1 -3 5 -22 12 -41
15 -22 5 -33 11 -29 18 4 6 3 8 -3 5 -6 -4 -16 0 -23 8 -7 8 -17 15 -22 15 -6
0 6 -22 24 -48 19 -26 34 -55 32 -65 -1 -9 7 -22 18 -28 11 -6 17 -17 14 -25
-3 -9 -1 -12 4 -9 6 3 10 -2 10 -12 0 -11 4 -23 9 -29 14 -15 25 -58 13 -50
-6 3 -4 -8 5 -25 29 -58 0 -322 -43 -391 -5 -7 -9 -19 -10 -26 -4 -21 -14 -28
-14 -9 0 9 -4 19 -10 22 -6 4 -7 -1 -3 -12 5 -17 5 -17 -12 -1 -20 19 -67 167
-58 182 4 5 1 6 -4 3 -6 -4 -17 8 -24 26 -14 32 -15 37 -18 58 0 5 -6 7 -13 3
-7 -5 -8 -3 -3 5 4 8 -11 40 -40 82 -45 67 -67 90 -45 49 6 -10 9 -23 9 -27
-1 -4 2 -19 8 -33 6 -14 17 -41 25 -60 8 -19 13 -41 10 -48 -2 -7 2 -20 10
-29 11 -14 11 -16 -1 -9 -9 6 -8 0 3 -17 10 -14 19 -54 22 -94 2 -37 7 -105
10 -150 5 -57 3 -83 -4 -83 -6 0 -13 25 -15 58 l-3 57 -2 -67 c-2 -58 0 -67
14 -61 14 5 15 -4 10 -84 -10 -137 -21 -195 -42 -211 -18 -14 -18 -14 -1 -8
20 7 21 12 -9 -89 -19 -67 -39 -91 -61 -74 -9 9 -14 7 -19 -5 -4 -9 -4 -20 0
-23 3 -4 6 2 6 12 0 18 1 18 15 -1 10 -13 14 -15 15 -5 0 8 2 12 5 9 8 -8 -6
-39 -15 -33 -9 6 -23 -25 -15 -33 3 -3 5 1 5 8 0 7 3 11 6 8 8 -8 -15 -50 -24
-44 -4 2 -8 -7 -9 -21 -1 -27 -13 -43 -34 -46 -8 -2 -19 -6 -26 -10 -6 -4 -14
-3 -18 2 -3 6 -13 7 -23 4 -14 -5 -14 -3 3 17 11 13 14 20 7 16 -9 -6 -12 -1
-8 16 13 63 19 135 22 263 l2 140 -43 132 c-43 128 -95 249 -77 178 4 -16 7
-100 6 -185 0 -148 -17 -278 -44 -335 -5 -11 -22 -55 -39 -97 -36 -92 -137
-289 -213 -414 -56 -91 -79 -142 -60 -130 5 3 16 -2 23 -11 12 -15 12 -16 -1
-8 -28 18 -40 13 -54 -20 -8 -18 -19 -36 -25 -39 -6 -4 -11 -12 -11 -18 0 -6
7 -5 18 3 9 7 0 -5 -20 -26 -42 -44 -57 -42 -34 4 9 17 15 34 14 38 -1 4 5 22
14 39 9 17 22 62 28 100 6 38 13 80 16 94 3 16 -7 5 -26 -28 -17 -30 -34 -52
-36 -49 -3 3 6 42 21 88 14 45 27 99 28 121 1 21 4 38 7 38 3 0 6 33 6 73 1
50 -1 63 -6 42 -7 -29 -8 -29 -10 10 -2 34 -5 27 -20 -45 -10 -47 -26 -107
-35 -135 -25 -72 -103 -220 -139 -264 -17 -21 -51 -66 -76 -100 -25 -35 -99
-131 -166 -214 -113 -142 -193 -260 -166 -243 8 5 15 -1 21 -15 6 -18 0 -36
-31 -84 -22 -33 -57 -97 -79 -142 -21 -46 -41 -83 -43 -83 -3 0 -8 5 -12 12
-4 7 -3 8 4 4 8 -5 10 2 7 21 -2 15 -9 68 -15 116 -6 49 -20 112 -31 140 -24
60 -34 73 -27 35 4 -19 1 -25 -9 -21 -7 3 -13 10 -13 16 0 6 -3 7 -7 4 -3 -4
-13 2 -20 13 -8 11 -18 18 -22 16 -11 -7 -49 21 -62 47 -8 14 0 10 20 -12 17
-19 34 -31 37 -28 8 8 -142 179 -153 175 -4 -2 -7 -6 -5 -10 1 -5 -2 -8 -6 -8
-13 0 -53 46 -47 53 3 4 2 5 -2 2 -10 -8 -164 148 -159 162 3 6 -1 10 -7 7
-16 -6 -60 53 -51 68 4 6 3 8 -3 5 -13 -8 -37 18 -29 31 3 6 -2 16 -12 23 -15
12 -16 12 -7 -1 6 -9 0 -5 -12 9 -35 39 -76 129 -69 148 6 14 5 16 -5 6 -10
-10 -17 -3 -35 35 -13 26 -23 55 -23 64 -1 9 -5 19 -10 22 -14 9 -72 202 -86
287 -16 100 -18 242 -5 294 6 22 12 49 14 60 2 11 14 47 26 80 11 33 25 74 29
90 4 17 13 42 20 55 l12 25 -20 -25 c-31 -38 -86 -143 -83 -159 2 -7 -1 -10
-7 -7 -13 8 -18 -11 -36 -138 -9 -63 -13 -138 -10 -180 12 -150 27 -294 41
-369 12 -70 12 -81 -2 -103 -9 -13 -20 -21 -25 -18 -5 3 -9 0 -9 -5 0 -14 11
-13 32 3 10 7 15 16 11 19 -3 4 -1 7 6 7 7 0 11 -6 8 -14 -3 -7 1 -23 9 -35 8
-11 12 -21 8 -21 -3 0 -1 -7 6 -15 11 -13 10 -14 -6 -8 -17 6 -18 5 -4 -13 8
-10 -3 -3 -24 16 -21 19 -47 48 -59 64 -17 25 -18 29 -4 23 23 -9 21 -4 -10
24 -20 18 -24 19 -13 4 14 -19 14 -19 -3 -6 -10 8 -16 20 -13 27 3 8 1 13 -4
11 -6 -1 -16 8 -23 19 -43 74 -57 107 -52 124 3 10 1 21 -4 25 -7 3 -8 0 -5
-9 3 -9 4 -16 1 -16 -9 0 -68 173 -63 186 3 8 1 16 -4 19 -9 5 -24 94 -37 210
l-7 70 -7 -45 c-3 -27 -7 -35 -8 -20 -2 23 -3 24 -12 5 -18 -38 -1 322 20 425
32 157 86 295 146 374 27 36 135 117 258 194 l68 43 87 -40 c220 -101 453 -86
639 39 25 17 48 28 51 25 3 -3 0 -5 -6 -5 -17 0 -35 -37 -22 -45 6 -4 10 -3 9
2 -4 21 3 31 22 36 17 5 18 3 8 -10 -11 -13 -10 -14 6 -12 26 4 67 -10 60 -21
-3 -4 1 -7 8 -7 6 1 50 -11 97 -27 77 -26 99 -29 225 -30 151 -1 217 10 298
50 26 13 45 20 42 15 -3 -6 0 -13 6 -17 8 -4 9 -3 5 4 -4 6 7 26 25 44 17 18
27 26 23 18 -5 -12 -4 -12 6 -3 7 6 19 9 26 6 8 -3 14 1 14 8 0 12 2 12 9 0 6
-9 20 -11 49 -6 32 5 40 10 35 23 -3 9 -3 14 2 10 4 -4 14 -3 21 3 8 6 21 9
29 5 9 -3 13 -2 10 4 -3 6 6 15 21 20 15 6 33 18 39 27 10 13 14 13 20 3 5 -8
4 -11 -2 -7 -5 3 -10 0 -10 -8 0 -11 4 -12 14 -4 7 6 10 15 7 20 -3 5 0 9 7 9
7 0 10 2 7 5 -3 3 12 25 34 47 22 23 47 52 55 65 8 12 20 20 26 16 5 -3 7 -1
4 4 -4 6 4 35 18 65 14 29 25 67 26 83 0 28 1 28 9 8 13 -31 19 -29 15 5 -4
38 6 54 21 30z m-2550 -333 c-13 -55 -18 -63 -80 -145 -19 -24 -32 -48 -29
-53 7 -12 4 -183 -4 -204 -6 -15 -5 -15 8 -4 9 9 14 33 14 65 0 59 5 60 75 29
l45 -20 -45 -28 c-78 -49 -138 -104 -159 -148 -31 -64 -72 -179 -62 -173 8 5
23 -85 15 -93 -2 -2 -15 1 -30 7 -16 8 -35 33 -52 70 -24 51 -26 68 -25 157 3
176 56 288 218 455 50 52 97 105 104 118 18 35 20 26 7 -33z m-992 -251 c96
-36 212 -139 245 -218 42 -98 49 -260 15 -345 -8 -18 -14 -44 -14 -56 0 -17
-5 -22 -22 -20 -37 4 -38 4 -38 16 0 5 4 7 10 4 6 -3 7 1 4 9 -3 9 -10 13 -15
10 -5 -3 -6 2 -3 10 3 9 9 14 13 12 23 -15 19 187 -6 251 -23 58 -93 187 -99
181 -2 -2 13 -47 32 -98 42 -110 54 -197 33 -238 -19 -37 -53 -69 -69 -64 -7
3 -10 0 -6 -6 3 -6 -10 -9 -38 -8 -24 0 -42 4 -40 8 2 3 -6 10 -18 13 -72 22
-116 89 -143 220 -21 104 -19 162 8 215 26 53 58 72 110 66 46 -5 47 1 2 20
-52 21 -72 17 -108 -21 -28 -31 -78 -51 -62 -25 3 6 -1 7 -9 4 -39 -15 -4 41
37 60 59 27 108 27 181 0z m4178 -145 c193 -158 429 -417 804 -884 383 -476
543 -753 648 -1116 71 -249 96 -619 52 -778 -19 -68 -60 -153 -86 -176 -19
-17 -19 -15 3 36 56 125 79 330 58 493 -16 115 -60 286 -118 456 -84 248 -249
548 -448 815 -45 61 -121 164 -170 230 -204 278 -525 665 -704 850 -134 138
-146 161 -39 74z m-4459 -159 c15 -7 27 -17 27 -22 0 -5 4 -7 9 -3 12 7 18
-13 35 -109 12 -69 12 -76 -3 -76 -25 0 -187 -48 -259 -76 -34 -14 -68 -22
-74 -18 -7 5 -8 3 -3 -6 6 -10 4 -12 -9 -7 -9 4 -15 3 -12 -2 9 -14 -67 -41
-81 -29 -20 16 -35 115 -31 199 3 72 6 81 33 109 44 43 118 61 240 56 55 -2
112 -9 128 -16z m4505 -207 c56 -38 125 -105 205 -199 38 -43 76 -88 86 -99
28 -32 92 -146 97 -175 6 -25 2 -28 -73 -58 -44 -18 -84 -32 -89 -32 -5 0 -63
-29 -128 -65 -123 -67 -164 -77 -199 -51 -15 12 -17 18 -7 35 6 12 16 18 22
15 7 -4 8 -3 4 4 -15 24 118 139 187 161 42 14 52 34 10 21 -16 -4 -73 -27
-127 -49 -128 -53 -182 -55 -220 -10 -32 38 -34 99 -7 214 43 178 121 315 180
315 10 0 36 -12 59 -27z m-3794 -50 c98 -94 260 -414 330 -651 32 -108 38
-134 28 -129 -4 3 -6 -10 -4 -29 3 -21 0 -34 -7 -34 -7 0 -9 -4 -6 -10 3 -5 1
-10 -4 -10 -6 0 -12 8 -12 18 -1 16 -2 16 -6 -1 -10 -38 -40 29 -72 161 -32
134 -95 329 -111 346 -5 5 -2 -13 6 -40 29 -94 64 -329 57 -384 -6 -48 -7 -51
-20 -34 -13 17 -14 17 -7 -10 5 -20 3 -27 -4 -22 -6 3 -13 -2 -15 -11 -2 -10
-3 -7 -2 6 4 30 -4 51 -17 51 -6 0 -8 -11 -6 -25 3 -13 1 -22 -3 -19 -5 3 -9
26 -9 51 0 25 -7 75 -15 112 -8 36 -24 127 -36 201 -11 74 -34 186 -50 248
-34 131 -33 125 -16 116 6 -4 9 -4 5 0 -3 4 -9 7 -13 6 -6 -1 -65 114 -65 126
0 2 8 4 18 4 10 0 35 -17 56 -37z m-569 -48 c32 -14 54 -29 50 -35 -3 -5 -2
-10 4 -10 16 0 41 -56 37 -82 -2 -14 -10 -22 -20 -22 -9 1 -14 -2 -11 -6 3 -5
2 -10 -2 -13 -5 -2 -2 -2 6 0 11 3 11 1 1 -12 -7 -8 -16 -12 -22 -9 -5 3 -15
0 -23 -6 -8 -6 -20 -8 -26 -4 -7 4 -9 3 -6 -3 4 -5 -32 -24 -81 -43 -48 -18
-128 -52 -178 -75 -72 -33 -95 -40 -110 -32 -23 13 -37 35 -40 66 -3 23 -3 23
18 5 16 -15 15 -9 -7 24 -21 32 -31 40 -38 30 -6 -9 -7 -8 -3 5 3 9 2 37 -3
62 -6 30 -5 42 2 38 6 -4 8 2 5 14 -5 18 6 26 71 56 166 77 283 93 376 52z
m335 -105 c0 -5 5 -9 12 -7 27 5 78 -138 78 -219 0 -63 -13 -101 -43 -130 -19
-17 -25 -19 -35 -7 -19 19 -74 204 -69 231 2 12 1 22 -3 22 -4 0 -6 21 -4 48
2 26 3 52 4 57 0 14 60 19 60 5z m-155 -195 c15 -19 29 -51 32 -72 4 -32 -1
-44 -28 -76 -19 -23 -37 -36 -46 -33 -8 3 -12 2 -8 -3 8 -13 -52 -54 -66 -45
-7 4 -9 3 -6 -3 9 -14 -89 -77 -104 -67 -7 4 -9 3 -6 -3 4 -6 -5 -15 -20 -22
-21 -9 -30 -9 -49 4 -14 9 -25 11 -29 5 -3 -6 -1 -10 6 -10 7 0 10 -3 6 -6 -7
-8 -52 23 -52 36 0 6 -3 9 -6 8 -11 -5 -40 25 -36 36 2 6 -5 24 -16 39 -29 42
-38 94 -20 113 48 48 286 131 380 133 37 1 45 -3 68 -34z m4672 -183 c18 -12
20 -102 2 -113 -8 -4 -34 -11 -59 -14 -80 -11 -194 -37 -244 -57 -27 -10 -55
-17 -63 -14 -8 3 -12 2 -9 -3 3 -5 -9 -14 -27 -21 -17 -6 -40 -16 -49 -21 -12
-6 -18 -5 -18 2 0 8 -4 8 -12 2 -40 -31 -41 -16 -3 23 26 26 50 42 57 38 6 -4
8 -3 4 4 -14 22 152 134 242 163 59 18 158 25 179 11z m18 -197 c75 -17 178
-62 171 -74 -3 -5 3 -11 14 -14 21 -5 28 -27 9 -27 -5 0 -7 5 -4 10 3 6 -1 10
-9 10 -9 0 -16 -7 -16 -15 0 -8 5 -15 12 -15 6 0 9 -3 6 -6 -4 -3 -15 -1 -26
5 -12 6 -36 13 -54 16 -18 2 -51 9 -73 15 -60 15 -191 23 -211 12 -12 -7 -1
-9 38 -9 30 0 65 -6 78 -14 14 -7 29 -12 33 -11 16 5 106 -41 100 -51 -3 -5
-1 -7 4 -4 16 10 74 -13 66 -26 -4 -6 0 -8 10 -4 10 3 17 3 17 -2 0 -5 11 -12
25 -15 14 -4 23 -10 20 -15 -2 -5 2 -12 11 -15 8 -3 12 -2 9 4 -3 6 1 7 9 4 9
-3 16 -10 16 -15 0 -5 8 -9 18 -9 12 0 11 -4 -8 -13 -28 -15 -43 -12 -20 4 12
8 9 10 -9 5 -13 -3 -33 0 -44 6 -15 8 -18 7 -12 -3 6 -9 3 -10 -11 -5 -77 31
-238 56 -354 57 -69 0 -138 -4 -154 -9 -21 -6 1 -9 79 -10 150 -3 312 -33 298
-55 -3 -6 -1 -7 6 -3 23 15 246 -87 234 -107 -3 -6 -1 -7 6 -3 6 4 24 0 39
-10 15 -10 31 -19 36 -19 5 0 10 -8 12 -17 2 -13 -5 -18 -22 -18 -16 0 -23 -4
-18 -11 3 -6 18 -8 33 -5 14 3 20 3 13 0 -6 -3 -9 -10 -6 -16 3 -5 0 -8 -7 -7
-20 3 -50 -12 -43 -22 3 -5 -2 -6 -10 -3 -9 3 -13 11 -9 17 4 6 0 8 -8 5 -8
-3 -32 3 -53 13 -67 32 -236 68 -381 80 -166 13 -386 18 -400 8 -5 -4 -35 -10
-66 -14 -42 -5 -58 -3 -67 8 -10 11 -8 18 10 33 12 10 18 13 13 5 -6 -11 -4
-13 8 -8 9 3 19 1 23 -5 5 -7 2 -8 -6 -3 -8 5 -11 4 -6 -3 4 -6 -3 -9 -19 -8
-13 2 -22 0 -20 -4 6 -9 55 -10 56 -1 6 43 5 49 -9 43 -29 -11 -6 17 43 52
107 76 273 143 383 153 69 7 70 14 2 32 -38 10 -58 10 -120 -5 -41 -9 -82 -20
-91 -25 -10 -5 -21 -3 -27 3 -8 8 -12 9 -12 1 0 -6 -8 -14 -17 -17 -10 -3 5
15 32 40 134 124 274 166 430 129z m-317 -515 c134 -19 187 -46 195 -100 2 -8
5 -20 9 -25 3 -6 9 -27 13 -48 11 -58 28 -57 24 2 -2 29 0 51 6 52 6 0 4 3 -2
6 -20 7 -15 23 5 16 15 -6 15 -5 4 10 -12 14 -11 15 11 4 14 -6 23 -16 20 -21
-4 -5 -1 -6 6 -2 6 4 26 -2 45 -13 26 -16 35 -30 40 -60 3 -22 20 -73 36 -113
l30 -73 -6 50 c-3 28 -8 57 -10 67 -4 12 4 18 27 23 24 5 28 10 19 19 -10 8
-14 8 -17 -1 -3 -7 -12 -13 -21 -13 -15 1 -15 2 1 11 9 6 14 15 11 21 -9 13 8
4 53 -30 18 -13 30 -28 27 -33 -3 -5 0 -8 7 -7 30 7 98 -363 85 -464 -10 -73
-42 -152 -83 -200 -44 -54 -136 -125 -189 -148 -40 -18 -127 -24 -118 -8 3 4
-2 8 -10 8 -24 0 -19 24 12 51 51 46 91 69 109 63 14 -4 15 -3 4 4 -17 13 1
24 25 15 12 -4 15 -3 10 5 -5 8 0 12 14 12 12 0 18 5 15 10 -3 6 0 10 7 10 7
1 -2 7 -19 15 -25 10 -31 19 -27 32 5 14 4 15 -4 4 -5 -7 -15 -11 -20 -7 -15
9 -69 -15 -138 -62 -85 -58 -149 -83 -224 -88 -55 -3 -67 0 -87 18 -13 12 -23
29 -23 37 0 21 103 106 130 107 11 1 24 5 28 9 4 5 -2 5 -13 1 -26 -10 -14 2
27 24 18 10 32 22 31 28 -1 5 9 7 22 4 14 -2 23 -7 21 -11 -3 -4 4 -7 14 -7
10 0 16 4 14 8 -3 4 -1 8 5 8 5 0 13 -4 16 -10 3 -5 21 -17 40 -26 21 -10 32
-21 28 -28 -4 -6 1 -5 11 3 15 13 19 13 26 1 7 -11 14 -12 34 -2 14 6 26 16
26 22 0 13 -6 13 -30 -2 -16 -10 -24 -9 -47 10 -65 50 -123 92 -123 86 0 -3 5
-14 10 -24 9 -17 7 -19 -20 -15 -37 4 -50 12 -50 31 0 12 -4 12 -20 4 -20 -11
-30 3 -10 15 6 4 8 10 5 14 -2 5 11 28 30 52 48 60 44 78 -6 29 -23 -22 -46
-37 -52 -33 -6 3 -7 1 -3 -6 9 -13 -73 -95 -143 -144 -39 -27 -56 -32 -110
-34 -68 -2 -94 4 -85 18 3 5 -2 6 -9 3 -10 -3 -28 12 -51 42 -28 36 -36 56
-36 88 0 71 68 194 194 351 30 38 52 73 47 78 -5 5 -30 -5 -56 -22 -27 -17
-51 -29 -53 -26 -2 2 3 24 11 49 9 26 14 46 12 46 -7 0 -92 -125 -145 -213
-28 -48 -60 -92 -70 -97 -22 -12 -59 -70 -65 -101 -8 -42 -24 -45 -40 -6 -8
21 -29 60 -46 87 -17 27 -27 55 -23 61 4 7 3 9 -4 5 -6 -3 -17 12 -27 38 -17
43 -17 46 3 73 16 23 162 131 448 332 28 19 88 35 154 40 8 0 44 -4 78 -9z
m-3931 -387 c-9 -74 -63 -234 -97 -285 -20 -30 -47 -54 -74 -67 -43 -21 -106
-28 -106 -12 0 5 -13 11 -29 14 -16 3 -31 13 -34 21 -5 13 -2 13 28 0 46 -19
69 -18 113 5 51 26 85 65 120 136 32 64 72 185 72 216 0 10 3 19 6 19 4 0 4
-21 1 -47z m1342 -58 c18 -17 21 -25 11 -25 -8 0 -4 -6 9 -13 14 -6 26 -19 28
-27 3 -10 2 -11 -4 -4 -9 14 -77 23 -80 12 -2 -5 -3 -87 -3 -183 l0 -175 25
-10 c13 -5 72 -15 130 -22 66 -8 105 -17 105 -24 0 -20 -32 -21 -170 -5 l-135
16 -3 228 c-1 141 1 235 8 247 13 24 46 18 79 -15z m-589 -319 c5 -5 -1 -29
-14 -55 -35 -69 -56 -122 -46 -116 5 3 4 -9 -1 -27 -6 -18 -12 -44 -15 -58 -3
-14 -9 -38 -13 -55 -15 -50 -22 -112 -11 -95 8 12 10 9 10 -13 0 -16 -4 -26
-10 -22 -14 9 -12 -29 2 -43 9 -9 8 -12 -5 -12 -13 0 -17 10 -19 43 l-1 42 -7
-45 c-5 -35 -7 -38 -9 -15 -1 22 -4 26 -10 15 -6 -8 -8 -28 -5 -45 4 -28 4
-29 -6 -6 -7 17 -7 34 -1 53 7 20 7 27 0 22 -8 -4 -9 1 -4 17 14 45 -3 14 -49
-94 -26 -59 -44 -113 -40 -119 5 -7 3 -8 -6 -3 -10 6 -12 4 -7 -9 4 -9 3 -15
-1 -12 -6 4 -71 -148 -294 -686 -75 -183 -83 -193 -123 -164 -18 13 -17 18 29
137 244 625 632 1464 644 1394 2 -11 8 -24 12 -29z m101 -74 l36 -27 -18 -80
c-10 -44 -45 -199 -79 -344 -33 -145 -60 -274 -60 -287 0 -13 -5 -24 -11 -24
-6 0 -8 -9 -4 -20 4 -13 2 -20 -7 -20 -10 0 -9 -3 2 -10 9 -6 10 -10 3 -10 -6
0 -14 -14 -18 -30 -4 -17 -11 -28 -16 -24 -5 3 -9 -3 -9 -13 -1 -14 -4 -13
-15 7 l-15 25 -6 -22 c-3 -13 -9 -23 -13 -23 -8 0 -6 30 15 190 9 63 19 161
23 217 5 56 15 123 24 150 9 26 34 111 58 188 63 213 54 200 110 157z m1865
-53 c18 -18 31 -36 28 -41 -3 -5 -2 -7 3 -6 4 2 10 -1 13 -7 2 -5 17 -21 32
-33 29 -24 38 -47 16 -39 -7 2 -13 9 -13 15 0 5 -4 14 -9 19 -5 4 -6 3 -2 -4
3 -6 1 -15 -4 -18 -6 -4 5 -16 27 -27 21 -11 47 -29 58 -41 11 -11 13 -16 4
-9 -9 7 -20 8 -24 4 -5 -4 -5 -1 -1 6 5 9 -6 12 -43 12 -46 0 -51 -2 -51 -22
0 -22 -1 -21 -25 7 -13 17 -22 35 -20 42 2 7 -2 10 -9 7 -7 -3 -32 24 -60 68
-26 40 -36 60 -22 45 27 -29 35 -21 14 12 -33 54 34 62 88 10z m-409 -69 c-8
-37 2 -68 14 -48 7 11 11 10 19 -2 5 -8 10 -10 10 -4 0 5 -7 19 -15 30 -8 10
-14 26 -14 34 -1 8 12 -5 28 -30 15 -25 26 -51 24 -57 -3 -7 0 -13 6 -13 6 0
8 -7 4 -16 -5 -13 -7 -13 -14 -2 -5 7 -9 8 -9 2 0 -6 3 -14 7 -17 3 -4 7 -22
9 -39 l2 -33 -11 28 c-6 15 -19 27 -29 27 -14 0 -18 -8 -18 -40 0 -33 -3 -40
-20 -40 -18 0 -20 -7 -20 -86 0 -56 -4 -83 -10 -79 -7 4 -9 -2 -4 -19 8 -34
-7 -33 -28 2 -11 17 -18 21 -18 11 0 -8 7 -24 15 -35 8 -10 15 -27 15 -36 0
-9 7 -23 14 -31 15 -15 43 -61 79 -132 12 -22 37 -67 57 -100 20 -33 61 -103
90 -155 73 -130 130 -225 180 -300 6 -8 24 -37 40 -65 17 -27 48 -79 70 -114
22 -35 34 -61 26 -58 -10 4 -13 1 -10 -7 3 -7 -2 -19 -11 -26 -19 -16 -94 -30
-101 -19 -2 4 -12 5 -21 2 -13 -5 -15 -2 -10 11 5 11 3 15 -5 10 -8 -5 -9 -2
-5 10 4 9 3 15 -1 12 -11 -7 -63 94 -55 107 3 5 2 7 -4 4 -10 -7 -15 2 -111
203 -125 259 -166 359 -249 600 -76 218 -74 212 -60 204 7 -4 5 1 -4 12 -9 10
-14 25 -12 32 3 6 0 12 -7 12 -6 0 -8 5 -4 11 3 6 1 15 -6 19 -6 4 -13 26 -13
49 -1 22 -5 41 -9 41 -12 0 -10 22 5 54 11 24 16 27 48 23 20 -3 43 0 50 5 10
6 7 7 -10 3 -16 -5 -21 -4 -17 4 9 13 1 14 -42 2 -19 -6 -32 -6 -32 0 0 5 12
11 28 15 15 3 44 12 66 20 38 15 76 11 76 -7 0 -6 -8 -6 -20 1 -11 6 -20 7
-20 1 0 -14 32 -23 43 -12 7 7 5 16 -4 27 -12 16 -12 17 4 11 9 -3 17 -2 17 3
0 6 3 10 6 10 4 0 4 -13 1 -30z m-1151 -2 c30 -21 39 -34 50 -78 2 -8 -12
-100 -32 -205 -48 -260 -54 -286 -67 -278 -7 4 -8 -8 -4 -38 4 -33 3 -40 -5
-26 -5 11 -8 32 -6 48 3 17 1 32 -4 35 -4 3 -8 -1 -8 -9 0 -8 -11 -18 -24 -21
-13 -3 -26 -15 -29 -26 -5 -20 -37 -29 -37 -9 0 5 5 7 10 4 6 -3 10 -2 10 4 0
21 -21 21 -30 -1 -9 -20 -10 -18 -5 12 l5 35 -16 -25 c-12 -20 -14 -21 -10 -5
2 11 17 79 32 152 15 72 32 130 36 127 4 -3 5 2 2 10 -6 15 59 261 78 299 11
22 15 22 54 -5z m1415 -125 c105 -121 169 -208 169 -227 0 -9 6 -19 14 -22 8
-3 13 -17 11 -37 -2 -18 -3 -38 -4 -45 -1 -7 -6 -10 -13 -6 -8 5 -9 2 -5 -9
16 -40 16 -49 1 -19 -20 37 -39 44 -23 8 8 -17 8 -29 0 -42 -10 -17 -11 -16
-5 7 3 17 0 30 -12 40 -15 13 -16 12 -9 -11 7 -24 6 -24 -8 -5 -8 10 -12 26
-9 34 3 8 1 12 -4 8 -14 -8 -65 98 -58 120 4 13 3 14 -3 5 -7 -8 -16 5 -32 45
-13 32 -29 71 -36 87 -7 16 -11 36 -7 44 4 11 1 13 -8 7 -8 -5 -11 -4 -6 3 3
6 1 14 -5 18 -8 5 -8 8 0 14 15 9 3 40 -15 40 -8 0 -14 7 -14 15 0 8 1 15 3
15 2 0 37 -39 78 -87z m-1601 27 c9 13 10 13 10 0 0 -13 1 -13 11 0 12 17 12
23 -22 -170 -12 -69 -27 -128 -32 -131 -5 -4 -6 -12 -2 -18 4 -7 4 -20 0 -29
-4 -9 -9 -28 -10 -42 -4 -38 -9 -54 -19 -62 -5 -3 -10 -19 -12 -35 -6 -69 -17
-122 -24 -118 -5 3 -13 -7 -18 -22 -8 -23 -10 -18 -8 32 2 33 1 54 -1 48 -3
-8 -21 -13 -43 -13 -21 0 -41 -6 -44 -12 -4 -7 -4 4 -2 26 3 21 14 56 24 77
11 21 16 36 12 34 -5 -3 -2 16 6 42 8 26 19 50 25 53 5 4 9 11 8 16 -3 16 13
74 20 70 3 -2 7 8 7 22 1 15 10 45 20 67 10 22 18 42 19 45 0 3 12 33 25 68
16 43 26 59 32 50 6 -10 10 -10 18 2z m1121 -230 c26 -124 65 -295 87 -381 45
-173 168 -545 236 -714 l44 -110 -66 -3 c-36 -2 -70 -1 -77 2 -20 7 -163 408
-230 641 -49 171 -121 544 -111 572 3 7 1 13 -4 13 -6 0 -9 3 -8 8 1 7 -9 104
-17 155 -5 32 19 48 70 44 l30 -2 46 -225z m2235 -292 c120 -125 214 -241 298
-368 82 -125 90 -140 78 -152 -18 -18 -39 -4 -88 59 -71 91 -270 344 -413 528
-68 88 -131 169 -140 180 -33 41 169 -148 265 -247z"/>
<path d="M4995 8404 c-55 -13 -116 -27 -135 -30 -42 -7 -54 -17 -117 -97 -37
-48 -42 -58 -22 -45 14 9 55 28 90 43 35 15 102 48 149 73 47 26 105 55 130
64 65 24 21 20 -95 -8z"/>
<path d="M5211 8154 c-27 -34 -90 -241 -91 -297 0 -17 8 -18 93 -16 50 2 149
-1 218 -5 l127 -9 11 57 c6 31 16 82 22 114 6 31 17 79 25 106 8 27 12 51 11
53 -13 12 -132 23 -253 23 -142 0 -143 0 -163 -26z"/>
<path d="M5241 3826 c-34 -85 -72 -196 -85 -247 -17 -68 -25 -85 -29 -68 -4
13 -17 35 -30 49 -28 30 -71 105 -155 270 -49 96 -62 116 -56 85 22 -132 106
-335 211 -515 40 -68 73 -128 73 -133 0 -4 5 -5 10 -2 6 4 8 11 5 16 -9 14 2
11 18 -6 13 -12 14 10 13 173 -1 175 1 194 28 296 15 60 36 136 47 169 34 106
14 71 -50 -87z"/>
<path d="M3011 5196 c-32 -18 -40 -41 -34 -96 9 -75 25 -95 85 -109 55 -14
133 -11 148 5 21 22 9 111 -21 161 -31 49 -123 70 -178 39z m141 -44 c28 -27
53 -123 35 -134 -18 -13 -150 0 -166 17 -8 7 -16 36 -19 63 -4 43 -1 51 19 66
31 23 104 16 131 -12z"/>
</g>
</svg>
